<svg width="1700" height="1199" viewBox="0 0 1700 1199" fill="none" xmlns="http://www.w3.org/2000/svg">
<path d="M58.4885 -178.708L58.5945 -179.45L57.5874 -179.594L57.7479 -178.59L58.4885 -178.708ZM58.4885 -178.708C58.5945 -179.45 58.5947 -179.45 58.5951 -179.45L58.5968 -179.45L58.6037 -179.449L58.6315 -179.445L58.7434 -179.429C58.843 -179.415 58.9922 -179.394 59.191 -179.366C59.5886 -179.311 60.1841 -179.228 60.975 -179.12C62.5569 -178.904 64.9206 -178.585 68.0466 -178.176C74.2988 -177.359 83.6002 -176.181 95.7945 -174.742C120.183 -171.862 156.143 -167.933 202.424 -163.737L203.02 -163.683L203.1 -163.09C229.375 31.0927 264.229 369.257 256.722 763.873L256.722 763.88C249.214 1027.74 216.684 1306.94 204.53 1402.33L204.454 1402.93L203.856 1402.99C159.719 1407.09 114.687 1411.92 69.2939 1416.92L69.2863 1416.92L58.5631 1417.99L58.4885 1417.24L57.7477 1417.13C121.003 1015.22 121.004 616.285 105.189 317.823C97.2818 168.594 85.4209 44.4861 75.5369 -42.3125C70.595 -85.7116 66.1474 -119.783 62.9354 -143.004C61.3294 -154.614 60.0324 -163.512 59.1369 -169.506C58.6892 -172.504 58.3418 -174.775 58.1065 -176.297C57.9888 -177.058 57.8991 -177.631 57.8389 -178.014C57.8087 -178.206 57.786 -178.35 57.7708 -178.446L57.7536 -178.554L57.7493 -178.581C57.7484 -178.587 57.7479 -178.59 58.4885 -178.708ZM1815.05 1577.07C1814.7 1577 1814.26 1576.93 1813.75 1576.84C1812.16 1576.56 1809.8 1576.14 1806.66 1575.61C1800.39 1574.55 1791.06 1573 1778.8 1571.09C1754.28 1567.28 1718.03 1561.99 1671.14 1556.11C1577.37 1544.34 1441.03 1530.21 1270.75 1520.72C930.193 1501.74 453.865 1501.34 -89.2207 1575.65C-89.2251 1575.65 -89.2295 1575.65 -89.234 1575.65L-101.071 1576.96C-8.67141 1098.07 -8.68945 619.229 -31.8197 260.041C-43.393 80.3194 -60.753 -69.4533 -75.2201 -174.298C-82.4536 -226.72 -88.964 -267.91 -93.6662 -295.996C-96.0173 -310.04 -97.9164 -320.807 -99.2278 -328.064C-99.8835 -331.692 -100.392 -334.443 -100.737 -336.287C-100.87 -336.995 -100.978 -337.569 -101.061 -338.008C-100.697 -337.947 -100.24 -337.871 -99.691 -337.779C-98.0744 -337.511 -95.6594 -337.115 -92.4645 -336.604C-86.0748 -335.583 -76.5656 -334.104 -64.0845 -332.273C-39.1225 -328.611 -2.27319 -323.54 45.2814 -317.905C140.39 -306.633 278.321 -293.102 449.618 -284.058C792.208 -265.971 1268.27 -265.837 1802.15 -337.648C1802.16 -337.648 1802.16 -337.649 1802.16 -337.649L1815.07 -339.138C1720.53 154.202 1720.54 633.362 1744.21 989.258C1756.05 1167.33 1773.82 1314.55 1788.62 1417.25C1796.02 1468.6 1802.68 1508.82 1807.49 1536.21C1809.9 1549.9 1811.84 1560.38 1813.18 1567.45C1813.43 1568.74 1813.65 1569.92 1813.86 1570.98C1814.21 1572.82 1814.5 1574.31 1814.73 1575.44C1814.86 1576.11 1814.96 1576.65 1815.05 1577.07ZM1363.51 1347.84L1363.51 1347.84C1266.13 651.331 1351.01 -19.2977 1370.13 -153.953L1370.26 -154.87L1369.33 -154.807C1303.93 -150.342 1239.95 -146.77 1177.77 -144.091L1177.05 -144.06V-143.342V1376.7V1377.42L1177.77 1377.45C1248.17 1380.48 1311.79 1384.23 1368.08 1388.52L1369 1388.59L1368.88 1387.67L1363.51 1347.84ZM910.938 -136.197V536.8H782.867V-136.018V-136.766L782.12 -136.768C732.981 -136.947 685.985 -138.018 641.127 -139.09L640.359 -139.108V-138.34V1374.2V1374.97L641.134 1374.95C689.561 1373.34 736.38 1372.27 782.126 1371.73L782.867 1371.72V1370.98V683.874H910.938V1370.27V1371.01L911.682 1371.02C958.862 1371.37 1004.43 1371.91 1048.03 1372.98L1048.8 1373V1372.23V-138.519V-139.289L1048.03 -139.269C1001.39 -138.018 955.821 -137.304 911.682 -136.947L910.938 -136.941V-136.197ZM338.504 -152.272V-151.573L338.622 -151.565C358.479 -10.7421 441.794 655.656 344.945 1347.66L344.945 1347.66L339.226 1390.35L339.103 1391.27L340.024 1391.2C398.638 1386.91 455.823 1383.34 511.577 1380.48L512.288 1380.45V1379.73V-142.806V-143.525L511.57 -143.555C448.489 -146.234 390.77 -149.449 339.306 -153.021L339.271 -152.505L338.504 -152.451V-152.272ZM1655.51 1417.99L1655.57 1417.21C1656.07 1417.13 1656.07 1417.13 1656.07 1417.12L1656.07 1417.09L1656.05 1416.99L1655.99 1416.55C1655.93 1416.17 1655.84 1415.59 1655.73 1414.83C1655.5 1413.3 1655.17 1411.02 1654.74 1408.02C1653.88 1402 1652.64 1393.07 1651.1 1381.43C1648.02 1358.13 1643.75 1323.95 1639.01 1280.44C1629.53 1193.4 1618.16 1069 1610.58 919.531C1595.41 620.598 1595.41 221.441 1656.07 -179.489L1656.22 -180.468L1655.24 -180.345L1643.82 -178.918C1643.81 -178.918 1643.81 -178.917 1643.81 -178.917C1597.53 -174.095 1551.6 -169.63 1506.4 -165.702L1505.8 -165.65L1505.72 -165.055C1479.44 29.1278 1444.41 368.006 1451.74 763.873L1451.74 763.881C1459.25 1025.24 1491.42 1301.59 1503.57 1399.3L1503.65 1399.89L1504.24 1399.95C1553.02 1404.86 1590.82 1409.37 1616.41 1412.65C1629.21 1414.29 1638.96 1415.63 1645.5 1416.55C1648.78 1417.01 1651.25 1417.37 1652.91 1417.61C1653.67 1417.73 1654.26 1417.81 1654.67 1417.88L1654.69 1417.99H1655.33H1655.51Z" stroke="url(#paint0_linear_124_190)" stroke-width="1.5"/>
<defs>
<linearGradient id="paint0_linear_124_190" x1="857" y1="-340" x2="857" y2="1578" gradientUnits="userSpaceOnUse">
<stop stop-color="#121E1A"/>
<stop offset="1" stop-color="#121E1A" stop-opacity="0"/>
</linearGradient>
</defs>
</svg>
